<svg xmlns="http://www.w3.org/2000/svg" viewBox="0 0 256 256"><rect width="256" height="256" fill="#0db7ed" rx="24"/><g fill="#fff" transform="translate(24,24) scale(0.8)"><rect x="48" y="64" width="32" height="32" rx="4"/><rect x="88" y="64" width="32" height="32" rx="4"/><rect x="128" y="64" width="32" height="32" rx="4"/><rect x="48" y="104" width="32" height="32" rx="4"/><rect x="88" y="104" width="32" height="32" rx="4"/><rect x="128" y="104" width="32" height="32" rx="4"/><path d="M24 160c8 16 28 32 64 32h48c40 0 64-24 72-48-16 0-24-8-32-16-8 16-24 24-40 24H56c-16 0-24 0-32 8z"/></g></svg>
